<?xml version="1.0" encoding="UTF-8"?>
<svg version="1.1" xmlns="http://www.w3.org/2000/svg" width="417" height="417">
<path d="M0 0 C25.4537082 4.11350944 47.42768482 13.98801682 70 26 C68.93376259 19.77612838 67.21696894 14.90610758 63.875 9.5625 C60 3.21366782 60 3.21366782 60 1 C63.46415854 2.27650881 66.34972719 3.75522762 69.37109375 5.87109375 C70.18586182 6.43997314 71.00062988 7.00885254 71.84008789 7.5949707 C72.69723389 8.20300537 73.55437988 8.81104004 74.4375 9.4375 C75.77059204 10.37758911 75.77059204 10.37758911 77.13061523 11.33666992 C84.61986917 16.65504726 91.86689107 22.21615506 99 28 C99.95003906 28.75667969 100.90007812 29.51335937 101.87890625 30.29296875 C107.83946905 35.08346375 113.50969533 40.12300674 119.10546875 45.328125 C121.6577539 47.68408052 124.25576246 49.96942001 126.875 52.25 C150.12577755 73.23150166 176.11957236 104.18984195 178.17919922 136.84082031 C178.47243488 145.92966678 178.53241235 155.01732272 177 164 C174.99812701 163.67810618 172.99857521 163.3417722 171 163 C169.85144531 162.83628906 168.70289063 162.67257813 167.51953125 162.50390625 C161.78484608 161.04757419 157.65521907 159.61539593 154.38134766 154.44238281 C151.16815 147.89780091 148.72116899 141.04983465 146.22460938 134.20751953 C140.27461739 118.62319045 130.64690867 105.67268396 119.34765625 93.53515625 C117.27477328 91.29671857 115.28545881 89.01356106 113.3125 86.6875 C110.1653904 83.05333772 106.72182712 80.03822622 103 77 C103.59425781 77.54785156 104.18851562 78.09570312 104.80078125 78.66015625 C116.71543718 90.05597802 125.49084975 103.39551831 133 118 C133.4650293 118.90411621 133.93005859 119.80823242 134.40917969 120.73974609 C145.47724615 142.50210497 145.47724615 142.50210497 147 154 C138.31407797 152.34132693 129.73405207 150.30131425 121.13598633 148.24169922 C115.85621208 147.00725317 110.64347321 145.8766429 105.2578125 145.22265625 C104.39470459 145.11622803 103.53159668 145.0097998 102.64233398 144.90014648 C101.0566296 144.72241512 99.46707558 144.57517654 97.87524414 144.46508789 C94.90997267 144.13531325 92.62682863 143.67481855 90.55224609 141.44140625 C89.20414472 139.35094 88.0890665 137.23603934 87 135 C86.61287842 134.26023926 86.22575684 133.52047852 85.8269043 132.75830078 C85.0283312 131.2275517 84.24032836 129.69124684 83.46240234 128.14990234 C79.03039748 119.37692454 74.31466433 111.57068333 68 104 C67.03320312 102.80697266 67.03320312 102.80697266 66.046875 101.58984375 C60.99273759 95.60089638 55.19664911 90.76110409 49 86 C48.03803711 85.2575 48.03803711 85.2575 47.05664062 84.5 C44.96040772 82.8878171 42.85702988 81.28554195 40.75 79.6875 C40.08871094 79.18371826 39.42742187 78.67993652 38.74609375 78.16088867 C34.64898197 75.08856801 30.49684054 72.45229257 26 70 C26.88558594 70.74121094 27.77117187 71.48242188 28.68359375 72.24609375 C50.60289785 90.79573167 70.00108369 110.49382364 80 138 C80 138.99 80 139.98 80 141 C79.05084717 140.91959473 78.10169434 140.83918945 77.1237793 140.75634766 C74.27161244 140.51489294 71.41928094 140.27546681 68.56689453 140.03662109 C65.29772602 139.76239223 62.02932747 139.48054834 58.76123047 139.19384766 C51.10996052 138.53127916 43.48510305 137.93490623 35.80859375 137.671875 C34.5863208 137.61950684 33.36404785 137.56713867 32.10473633 137.51318359 C29.83878077 137.42320037 27.57114458 137.36709899 25.3034668 137.35009766 C18.03623876 137.02142036 18.03623876 137.02142036 15.07080078 134.09838867 C13.51330857 131.79666542 12.23304958 129.48833536 11 127 C10.39414063 126.03191406 9.78828125 125.06382812 9.1640625 124.06640625 C8.65617188 123.24011719 8.14828125 122.41382813 7.625 121.5625 C4.12049812 116.04329549 0.25241162 110.96257291 -4 106 C-4.50660156 105.39671875 -5.01320312 104.7934375 -5.53515625 104.171875 C-14.96752125 93.84693327 -29.04703913 87.01918553 -41 80 C-39.96875 80.7425 -38.9375 81.485 -37.875 82.25 C-19.42325007 96.13771285 -1.61627932 111.96137602 7 134 C7 134.99 7 135.98 7 137 C5.67838867 137.05945801 5.67838867 137.05945801 4.33007812 137.12011719 C-32.69544598 138.84289864 -69.31632884 142.74650395 -106 148 C-105.38858154 147.96970703 -104.77716309 147.93941406 -104.1472168 147.90820312 C-86.28554487 147.06772992 -68.44185736 146.88907458 -50.5625 146.875 C-48.89953384 146.87125366 -48.89953384 146.87125366 -47.20297241 146.86743164 C-35.42768779 146.84567773 -23.73092776 146.85647224 -12 148 C-18.22872017 164.20415351 -31.65074041 172.77027759 -46 181 C-47.66919395 181.99577575 -49.33698479 182.99393927 -51 184 C-35.22246439 178.13681974 -18.37418576 171.74750265 -9.44760132 156.31642151 C-4.7169076 148.52312674 -4.7169076 148.52312674 -0.14877319 147.1312561 C3.26426179 146.98273612 6.49095579 147.17461982 9.890625 147.51171875 C11.72388336 147.62783257 11.72388336 147.62783257 13.59417725 147.74629211 C17.48539225 148.00672715 21.36506837 148.34690655 25.25 148.6875 C27.87725792 148.87028125 30.50486822 149.04807042 33.1328125 149.22070312 C37.9352382 149.5589408 42.73601897 149.90508213 47.53222656 150.32299805 C48.49404846 150.40502975 49.45587036 150.48706146 50.44683838 150.57157898 C52.99158958 150.99858873 54.77773267 151.71658724 57 153 C43.92169261 182.58197677 26.02944427 200.20681149 0 219 C31.60022749 204.87283947 50.81934389 182.74270363 67 153 C81.48161695 154.3770691 95.73143369 156.32712708 110 159.125 C110.68683868 159.25892151 111.37367737 159.39284302 112.08132935 159.53082275 C123.5672522 161.7836261 123.5672522 161.7836261 126 163 C124.4754216 175.14898415 114.93805107 187.2903756 107 196 C106.14535156 196.96164062 105.29070312 197.92328125 104.41015625 198.9140625 C94.64606496 209.81688519 84.46920727 219.88575535 73 229 C70.6477726 230.9793133 68.32318863 232.98656986 66 235 C79.78692217 227.33153441 92.65220839 218.82284742 105 209 C105.72960937 208.43925781 106.45921875 207.87851562 107.2109375 207.30078125 C120.44048303 196.58214946 128.59608019 180.99293761 136 166 C148.26260095 166.75077149 162.19378723 172.13193788 173 178 C174.43277538 182.29832615 172.91371708 185.63175487 171.625 189.8125 C171.21942871 191.13797852 171.21942871 191.13797852 170.80566406 192.49023438 C161.74930331 221.2242396 147.57133192 248.08800714 130.375 272.75 C129.86598145 273.48371826 129.35696289 274.21743652 128.83251953 274.97338867 C127.60917118 276.68886712 126.31153799 278.35096526 125 280 C124.34 280 123.68 280 123 280 C122.89042969 278.99839844 122.78085937 277.99679687 122.66796875 276.96484375 C122.50836916 275.62232954 122.34818135 274.27988517 122.1875 272.9375 C122.03667969 271.62652344 121.88585937 270.31554687 121.73046875 268.96484375 C121.13160746 264.94900863 119.73646029 261.65846018 118 258 C117.47792969 258.78761719 116.95585937 259.57523437 116.41796875 260.38671875 C102.15028489 281.50089189 86.44996563 296.56630932 62 305 C61.01 305 60.02 305 59 305 C59.309375 304.05125 59.61875 303.1025 59.9375 302.125 C61.27928271 297.49061575 61.63342007 292.79447959 62 288 C61.05253906 288.52787109 61.05253906 288.52787109 60.0859375 289.06640625 C58.1581162 290.13031916 56.22379526 291.18249143 54.28515625 292.2265625 C52.17622919 293.36503204 50.07858876 294.52480901 47.99609375 295.7109375 C34.13437447 303.22858157 18.44354809 307.16754959 3 310 C4.36193652 307.21283994 5.85244863 304.73230328 7.625 302.1875 C10.17452744 298.20246151 10.48533831 295.65924782 10 291 C9.39414063 291.12117188 8.78828125 291.24234375 8.1640625 291.3671875 C5.44270833 291.91145833 2.72135417 292.45572917 0 293 C-1.09477661 293.24919189 -1.09477661 293.24919189 -2.21166992 293.50341797 C-8.3759683 294.85438067 -14.2567917 295.38517871 -20.5625 295.375 C-21.5105249 295.37483887 -22.4585498 295.37467773 -23.43530273 295.37451172 C-34.04102594 295.20536143 -44.21757259 293.16832799 -54 289 C-53.59007812 288.52949219 -53.18015625 288.05898438 -52.7578125 287.57421875 C-52.21898437 286.95160156 -51.68015625 286.32898438 -51.125 285.6875 C-50.32449219 284.76517578 -50.32449219 284.76517578 -49.5078125 283.82421875 C-46.8235726 280.57670571 -45.66761828 278.11697941 -45 274 C-46.27875 274.165 -47.5575 274.33 -48.875 274.5 C-71.52635111 276.64356006 -89.0892013 271.38139948 -110 263 C-108.32555927 259.36451527 -106.61351466 257.70378714 -103.375 255.3125 C-97.96825063 251.1299203 -92.11047924 246.22095849 -89 240 C-89.58265625 239.95609131 -90.1653125 239.91218262 -90.765625 239.86694336 C-111.89923414 238.04142818 -131.52782132 231.01756258 -151 223 C-154.33070071 221.66005034 -157.66493494 220.32904556 -161 219 C-161 218.34 -161 217.68 -161 217 C-159.42798828 216.18595703 -159.42798828 216.18595703 -157.82421875 215.35546875 C-156.44515956 214.63310441 -155.06626171 213.91043199 -153.6875 213.1875 C-152.99720703 212.83107422 -152.30691406 212.47464844 -151.59570312 212.10742188 C-150.92861328 211.75615234 -150.26152344 211.40488281 -149.57421875 211.04296875 C-148.96151123 210.72352295 -148.34880371 210.40407715 -147.7175293 210.07495117 C-145.86356728 208.91461076 -144.48565744 207.59703203 -143 206 C-149.29636642 203.12243426 -155.79278998 201.0615049 -162.375 198.9375 C-175.82753828 194.53715429 -188.9323341 189.42705549 -202 184 C-202 183.34 -202 182.68 -202 182 C-200.77023438 181.43732422 -200.77023438 181.43732422 -199.515625 180.86328125 C-198.43796875 180.35152344 -197.3603125 179.83976563 -196.25 179.3125 C-194.64898437 178.56419922 -194.64898437 178.56419922 -193.015625 177.80078125 C-188.80087264 175.28394078 -186.55064595 172.65193786 -185 168 C-185.80566406 167.90589844 -186.61132812 167.81179687 -187.44140625 167.71484375 C-200.59308794 165.07295818 -212.61845479 157.94569786 -223.36035156 150.17529297 C-225.84701898 148.39286042 -228.4002186 146.70928901 -230.9375 145 C-233.33984375 143.375 -233.33984375 143.375 -235 142 C-235 141.34 -235 140.68 -235 140 C-217.16547552 124.2681617 -195.63616867 115.09589457 -173 109 C-170.93742899 108.43645776 -168.87492714 107.8726623 -166.8125 107.30859375 C-165.20841451 106.87209741 -163.60427885 106.43578513 -162 106 C-166.85627898 99.08162591 -171.84099875 94.48690125 -179 90 C-179.79792969 89.49082031 -180.59585938 88.98164063 -181.41796875 88.45703125 C-183.26818104 87.28795906 -185.13249854 86.1412509 -187 85 C-186 83 -186 83 -183.39892578 81.97851562 C-181.68938721 81.44774414 -181.68938721 81.44774414 -179.9453125 80.90625 C-178.68976563 80.51566406 -177.43421875 80.12507813 -176.140625 79.72265625 C-175.47998047 79.52172363 -174.81933594 79.32079102 -174.13867188 79.11376953 C-172.16456462 78.51205934 -170.19548053 77.89579231 -168.2265625 77.27734375 C-155.80923682 73.42017366 -144.82165048 71.6926615 -131.8125 71.875 C-130.57435547 71.88402344 -129.33621094 71.89304687 -128.06054688 71.90234375 C-125.04015489 71.92566724 -122.02018601 71.95839523 -119 72 C-121.62965535 67.71916571 -124.07136084 64.82350551 -128.125 61.75 C-132.92405063 58.07594937 -132.92405063 58.07594937 -135 56 C-127.16666879 52.62631459 -119.12429918 50.05143233 -110.97045898 47.59057617 C-108.83114883 46.94314381 -106.69585952 46.28352634 -104.56054688 45.62304688 C-84.78221915 39.5779275 -65.64719616 37.77255231 -45 38 C-47.57918128 35.39169315 -50.16405697 32.78910186 -52.75 30.1875 C-53.84441406 29.08051758 -53.84441406 29.08051758 -54.9609375 27.95117188 C-55.66992188 27.23896484 -56.37890625 26.52675781 -57.109375 25.79296875 C-57.75874023 25.1383667 -58.40810547 24.48376465 -59.07714844 23.80932617 C-60.97795301 21.94130699 -60.97795301 21.94130699 -63.24316406 20.38793945 C-63.82291992 19.92991943 -64.40267578 19.47189941 -65 19 C-65 18.34 -65 17.68 -65 17 C-54.37243276 16.24151802 -43.78418665 15.7665419 -33.125 15.75 C-32.0757988 15.74649536 -32.0757988 15.74649536 -31.00540161 15.74291992 C-17.18483112 15.7257012 -3.67985787 16.97786926 10 19 C9.69707031 18.49549316 9.39414063 17.99098633 9.08203125 17.47119141 C7.71681731 15.19180921 6.35834217 12.90848332 5 10.625 C4.52304688 9.8309375 4.04609375 9.036875 3.5546875 8.21875 C3.10351562 7.45820312 2.65234375 6.69765625 2.1875 5.9140625 C1.76855469 5.2123291 1.34960938 4.5105957 0.91796875 3.78759766 C0 2 0 2 0 0 Z " fill="#6F5017" transform="translate(237,60)"/>
</svg>
